# xmcd
#
# Track frame offsets:
#	150
#	14484
#	30285
#	42147
#	62175
#	78749
#	94048
#	115264
#	131703
#	146936
#	162301
#	177161
#	198911
#
# Disc length: 2906 seconds
#
# Revision: 1
# Processed by: cddbd v1.5.1PL0 Copyright (c) Steve Scherf et al.
# Submitted via: audiograbber 1.83.01
#
DISCID=b10b580d
DTITLE=Hal Newman and The Mystics Of Time - America's Party Band [CD4]
DYEAR=1999
DGENRE=R&B
TTITLE0=Hold On I'm Coming
TTITLE1=I Like It Like That
TTITLE2=Get On The Moon
TTITLE3=Mother In Law
TTITLE4=We Never Stopped
TTITLE5=Hey Baby
TTITLE6=Don't You Just Know It
TTITLE7=Blueberry Hill
TTITLE8=Rock and Roll Angel
TTITLE9=Holy Cow
TTITLE10=Wanted $10,000 Reward
TTITLE11=Mighty Mississippi
TTITLE12=Gone Fishin'
EXTD=
EXTT0=
EXTT1=
EXTT2=
EXTT3=
EXTT4=
EXTT5=
EXTT6=
EXTT7=
EXTT8=
EXTT9=
EXTT10=
EXTT11=
EXTT12=
PLAYORDER=
